<?xml version="1.0" encoding="UTF-8"?>
<svg id="Layer_1" xmlns="http://www.w3.org/2000/svg" version="1.1" viewBox="0 0 157.44 220.32">
  <!-- Generator: Adobe Illustrator 29.8.1, SVG Export Plug-In . SVG Version: 2.1.1 Build 2)  -->
  <defs>
    <style>
      .st0 {
        fill: #44bac6;
      }

      .st1 {
        fill: #fefefe;
      }

      .st2 {
        fill: #a0b5cc;
      }

      .st3 {
        fill: #2a588c;
      }
    </style>
  </defs>
  <path class="st1" d="M157.44,198.5v21.82H0V0h157.44v55.62l-.52-.16c-1.18-10.48-9.43-19.06-20.31-19.26l-.74-.48.48.23v182.15l-.48.3.73-.48c10.33-.21,19.16-8.4,20.06-18.72l.53-.7c.07-.21.15-.21.24,0Z"/>
  <path class="st3" d="M157.44,55.62v.48c-.12,47.01-.2,94.47-.24,142.4-.59,11.2-10.14,20.05-21.33,19.9V35.72c9.57-.23,18.22,6.46,20.67,15.64l.9,4.26Z"/>
  <path class="st2" d="M157.44,198.5h-.24c.44-47.02-.59-94.08,0-141.09,0-.41-.15-1.07.24-1.32v142.4Z"/>
  <path class="st3" d="M21.81,35.72v182.68c-10.72.19-19.9-8.07-21.3-18.61l-.04-144.78c.95-10.8,10.42-19.58,21.34-19.29Z"/>
  <path class="st3" d="M122.21,21.82H35.47v-9.71c0-5.22,4.02-10.16,9.06-11.32,22.35-.7,44.84-.15,67.24-.28,5.28.5,10.45,5.73,10.45,11.12v10.19Z"/>
  <path class="st3" d="M122.21,218.4H35.47v-21.34h67.46c.83,0,3.21.63,4.14.9,8.94,2.57,14.99,11.23,15.15,20.44Z"/>
  <path class="st0" d="M122.21,127.06H54.76c-4.29,0-10.82-3.8-13.66-6.95-3.6-3.98-5.38-9.05-5.63-14.39h67.94c.95,0,4.24,1.03,5.28,1.43,8.13,3.14,13.34,11.26,13.53,19.9Z"/>
</svg>