<?xml version="1.0" encoding="UTF-8"?>
<svg id="Layer_1" xmlns="http://www.w3.org/2000/svg" version="1.1" viewBox="0 0 610.32 220.32">
  <!-- Generator: Adobe Illustrator 29.8.1, SVG Export Plug-In . SVG Version: 2.1.1 Build 2)  -->
  <defs>
    <style>
      .st0 {
        fill: #849dbc;
      }

      .st1 {
        fill: #44bac6;
      }

      .st2 {
        fill: #2a588c;
      }
    </style>
  </defs>
  <path class="st1" d="M414,220.32c-21.43-1.55-35.5-21.01-31.33-41.96,4.7-23.65,34.06-35.66,53.65-20.97v17.38c-1.24-1.25-2-2.97-3.24-4.32-12.01-13.1-35.67-5.11-36.84,13.31-1.59,25.09,31.36,32.07,40.6,11.31,4.71-10.59,2.7-20.8,3.55-31.7.32-4.09,4.06-9.7,8.53-9.7h3.72v64.97h-4.44c-.52,0-2.12-.65-2.69-.91-2.71-1.28-4.63-3.83-5.23-6.76-4.18,4.21-9.71,7.18-15.53,8.47-1.48.33-3.53.77-5,.88-1.64.12-4.12.12-5.76,0Z"/>
  <path class="st1" d="M336.96,220.32c-27.59-2.23-40.61-33.85-24.77-56.03,12.52-17.55,39.58-16.89,53.22-1.03,6.45,7.51,8.46,17.39,7.32,27.09h-46.32c-.47-4,1.34-7.7,4.73-9.78.76-.47,2.98-1.49,3.79-1.49h24.12c-3.74-19.18-32.41-20.85-38.65-2.29-5.34,15.91,3.64,31.91,21.5,30.58,5.61-.42,7.98-2.56,12.13-5.62,5.17-3.81,10.99-4.25,17.26-3.97-4.05,10.08-11.99,18.67-22.75,21.51-1.43.38-3.67.91-5.09,1.03-1.76.15-4.72.14-6.48,0Z"/>
  <path class="st1" d="M610.32,175.01v32.36c-1.46,6.37-6.94,11.39-13.68,11.03v-39.44c-.13-9.6-6.92-16.22-16.65-15.43-4.91.4-8.76,3.12-11.91,6.68v-13.55c8.69-6.13,21.52-7.25,30.79-1.75,5.7,3.38,8.96,9.04,10.56,15.34l.88,4.75Z"/>
  <path class="st0" d="M.24,198.5h-.24V55.62h.24c.19.02.48.1.48.23.16,46.86.16,95.48,0,142.35l-.48.3Z"/>
  <path class="st2" d="M135.84,218.4V35.84c0-.15.31-.31.54-.31.47-.01,1.87.15,2.43.22,10.31,1.23,18.42,10.64,18.64,20.94v140.75c-.33,11.46-9.94,21.37-21.61,20.97Z"/>
  <path class="st2" d="M.24,55.62c.16-9.82,8.7-18.72,18.39-19.87.56-.07,1.96-.23,2.43-.22.23,0,.54.17.54.31v182.56c-11.21.31-20.84-8.74-21.36-19.9V55.62Z"/>
  <path class="st2" d="M287.04,13.67h-50.4v68.81h42.36c3.44,0,9.24,5.79,9.24,9.23v3.96h-65.52V.48h55.08c.24,0,1.75.6,2.13.75,5.08,2.13,7.56,7.03,7.11,12.43Z"/>
  <path class="st2" d="M360.6,95.66c-1.43-.17-3.81-1.33-4.92-2.28-1.68-1.42-2.37-3.21-3.24-5.15-16.64,16.15-47.56,10-55.56-12.11-1.09-3.02-2.04-6.89-2.39-10.08-3.23-29.24,30.5-48.9,54.24-31.59l-.25,17.33-2.4-3.47c-5.33-6.37-13.16-8.17-21.16-6.52-25.62,5.26-19.93,46.54,8.73,42.04,17.32-2.72,18.68-20.06,19.17-34.32.2-5.79-1.48-12.42,3.59-16.55.83-.68,3.72-2.27,4.68-2.27h3.72v64.97c-1.34-.11-2.89.15-4.2,0Z"/>
  <path class="st2" d="M429.12,49.39h-7.8c-4.51,0-6.29-5.87-9.89-7.86-4.5-2.5-10.92-2.52-15.51-.24-7.26,3.6-5.42,11.17,1.95,13.07,11.43,2.95,31.36,2.82,32.68,18.89,2.67,32.22-53.5,32.23-53.52,1.55h7.8c5.43,0,6.48,5.94,10.61,8.34,4.97,2.9,12.36,3.03,17.36.17,7.64-4.38,4.38-12-3.08-13.96-9.26-2.44-23.1-2.32-29.04-11.26-3.53-5.32-3.25-13.92,0-19.33,10.53-17.5,49.31-13.38,48.43,10.62Z"/>
  <path class="st2" d="M122.16,21.82H35.28v-10.91c0-4.74,5.81-10.48,10.67-10.44l66.22.04c4.58.39,9.99,5.8,9.99,10.4v10.91Z"/>
  <path class="st2" d="M122.16,218.4H35.28v-21.34h68.28c.63,0,3.1.71,3.85.95,8.62,2.8,14.84,11.27,14.75,20.39Z"/>
  <path class="st1" d="M122.16,127.06H54.12c-1.07,0-4.16-1-5.29-1.43-8.06-3.11-13.52-11.27-13.55-19.9h68.52c.75,0,3.46.88,4.33,1.19,8.27,2.94,14.11,11.34,14.03,20.14Z"/>
  <path class="st2" d="M505.68,29.73l-31.4,69.93c-4.47,10.49-11.85,18.84-23.93,19.73-1.04.08-8.41.15-8.77-.1-1.13-.79.99-5.94,1.65-7.01,4.17-6.8,10.5-4.42,14.68-9.07,2.68-2.98,5.52-9.6,7.25-13.37,8.15-17.76,14.93-37.03,23.51-54.43.94-1.9,1.73-3.42,3.64-4.51.37-.21,2.45-1.15,2.69-1.15h10.68Z"/>
  <path class="st1" d="M236.64,123.23v95.18c-7.02.28-12.99-5.3-13.89-12.14l-.04-70.23c.57-7.14,6.71-12.91,13.93-12.82Z"/>
  <path class="st1" d="M281.28,218.4v-95.18c6.4-.08,11.97,4.43,13.57,10.54.8,24.1.16,48.35.32,72.5-.88,6.81-6.9,12.4-13.89,12.14Z"/>
  <path class="st1" d="M564,218.4c-5.61.26-10.79-3.61-12.67-8.8-.17-.47-.77-2.49-.77-2.82v-83.55c5.69-.08,11.07,3.71,12.83,9.12.1.31.61,1.92.61,2.03v84.03Z"/>
  <path class="st1" d="M483.6,218.4c-5.21.34-10.49-3.35-12.42-8.09-.23-.57-1.02-2.85-1.02-3.3v-71.56c4.98-.19,9.99,2.99,12.13,7.42.32.67,1.31,3.37,1.31,3.97v71.56Z"/>
  <path class="st1" d="M519.36,168.78c.09.7-.23,1.34-.25,2.03-.24,6.71-.31,14.67,0,21.36s.84,11.51,7.93,13.42c1.63.44,3.22.46,4.86,1.13,4.68,1.92,7.1,6.81,7.13,11.68-2.5.22-5.28.53-7.8.5-19.41-.25-25.34-9.72-26.04-27.93-.28-7.38.57-14.8.25-22.19h13.92Z"/>
  <path class="st2" d="M447,29.73c2.22.3,4.62,2.23,5.68,4.15l16.48,36.06c-2.03,5.38-4.45,10.64-6.8,15.89l-26.28-56.1c3.4.33,7.62-.44,10.92,0Z"/>
  <path class="st1" d="M519.12,148.16h9.48c.47,0,2.98.95,3.56,1.24,3.89,1.93,6.38,6.18,6.4,10.51h-44.88c.1-.95-.26-2.17.23-3.01,6.9-7.1,13.44-14.55,20.29-21.69.41-.42,2.11-2.24,2.45-2.34.4-.12,2.47-.18,2.47.31v14.98Z"/>
  <path class="st2" d="M283.92,54.42h-42.96v-12.95h32.04c.78,0,2.83.6,3.64.92,4.96,1.94,7.44,6.86,7.28,12.03Z"/>
  <path class="st1" d="M277.2,177.17h-25.56c-.69,0-3.24-.94-3.97-1.31-4.21-2.12-6.92-6.69-6.95-11.4h24.84c1.19,0,3.81.97,4.92,1.55,4.11,2.13,6.6,6.56,6.72,11.15Z"/>
</svg>